<svg version="1.1" viewBox="0.0 0.0 1600.0 500.0" fill="none" stroke="none" stroke-linecap="square" stroke-miterlimit="10" xmlns:xlink="http://www.w3.org/1999/xlink" xmlns="http://www.w3.org/2000/svg"><clipPath id="p.0"><path d="m0 0l1600.0 0l0 500.0l-1600.0 0l0 -500.0z" clip-rule="nonzero"/></clipPath><g clip-path="url(#p.0)"><path fill="#000000" fill-opacity="0.0" d="m0 0l1600.0 0l0 500.0l-1600.0 0z" fill-rule="evenodd"/><path fill="#000000" fill-opacity="0.0" d="m-12.015748 0l1624.0315 0l0 500.0l-1624.0315 0z" fill-rule="evenodd"/><path fill="#ffffff" d="m83.04761 125.1344l0 247.26562l-67.125 0l0 -247.26562l67.125 0zm99.49014 142.95312l0 104.3125l-66.640625 0l0 -185.45312l63.265625 0l0 35.25l1.9375 0q6.03125 -17.625 21.296875 -27.640625q15.28125 -10.03125 35.6875 -10.03125q19.671875 0 34.21875 9.0q14.5625 9.0 22.578125 24.703125q8.03125 15.6875 7.921875 35.84375l0 118.328125l-66.65625 0l0 -104.3125q0.125 -13.765625 -6.9375 -21.609375q-7.0625 -7.859375 -19.625 -7.859375q-8.203125 0 -14.3125 3.5625q-6.09375 3.5625 -9.359375 10.140625q-3.25 6.578125 -3.375 15.765625zm220.22891 106.734375q-19.796875 0 -36.40625 -10.390625q-16.59375 -10.390625 -26.5625 -31.515625q-9.953125 -21.125 -9.953125 -53.25q0 -33.5625 10.4375 -54.5625q10.453125 -21.015625 27.046875 -30.796875q16.609375 -9.78125 34.953125 -9.78125q13.765625 0 24.140625 4.78125q10.390625 4.765625 17.390625 12.671875q7.015625 7.90625 10.625 17.328125l0.96875 0l0 -94.171875l66.65625 0l0 247.26562l-66.171875 0l0 -30.421875l-1.453125 0q-3.859375 9.40625 -11.046875 16.84375q-7.171875 7.421875 -17.375 11.71875q-10.203125 4.28125 -23.25 4.28125zm24.640625 -51.203125q9.171875 0 15.75 -5.375q6.578125 -5.375 10.140625 -15.203125q3.5625 -9.84375 3.5625 -23.375q0 -13.75 -3.5625 -23.59375q-3.5625 -9.84375 -10.140625 -15.09375q-6.578125 -5.25 -15.75 -5.25q-9.1875 0 -15.65625 5.25q-6.453125 5.25 -9.890625 15.09375q-3.4375 9.84375 -3.4375 23.59375q0 13.765625 3.4375 23.609375q3.4375 9.84375 9.890625 15.09375q6.46875 5.25 15.65625 5.25zm127.49591 48.78125l0 -185.45312l66.640625 0l0 185.45312l-66.640625 0zm33.4375 -204.76562q-13.640625 0 -23.296875 -8.9375q-9.65625 -8.9375 -9.65625 -21.5q0 -12.546875 9.65625 -21.484375q9.65625 -8.9375 23.1875 -8.9375q13.640625 0 23.234375 8.9375q9.59375 8.9375 9.59375 21.484375q0 12.5625 -9.59375 21.5q-9.59375 8.9375 -23.125 8.9375zm155.87653 208.14062q-29.703125 0 -51.140625 -11.40625q-21.421875 -11.40625 -32.953125 -32.828125q-11.53125 -21.4375 -11.53125 -51.390625q0 -28.734375 11.59375 -50.21875q11.59375 -21.5 32.71875 -33.453125q21.125 -11.953125 49.859375 -11.953125q21.015625 0 38.03125 6.53125q17.03125 6.515625 29.09375 18.890625q12.078125 12.375 18.59375 30.0q6.53125 17.625 6.53125 39.71875l0 15.46875l-165.65625 0l0 -36.71875l104.328125 0q-0.125 -7.96875 -4.046875 -14.0625q-3.921875 -6.09375 -10.515625 -9.53125q-6.578125 -3.4375 -14.90625 -3.4375q-8.09375 0 -14.859375 3.4375q-6.75 3.4375 -10.796875 9.484375q-4.046875 6.03125 -4.28125 14.109375l0 39.609375q0 8.9375 3.734375 15.9375q3.75 7.0 10.75 10.984375q7.0 3.984375 16.90625 3.984375q6.875 0 12.609375 -1.921875q5.734375 -1.9375 9.84375 -5.609375q4.109375 -3.6875 6.03125 -8.890625l60.859375 0q-3.140625 19.328125 -14.859375 33.515625q-11.703125 14.1875 -30.96875 21.96875q-19.25 7.78125 -44.96875 7.78125z" fill-rule="nonzero"/><path fill="#777fdd" d="m861.0938 372.40002l0 -247.26562l107.21875 0q28.25 0 47.50006 7.609375q19.265625 7.59375 29.109375 21.484375q9.84375 13.875 9.84375 32.71875q0 13.640625 -5.984375 24.875q-5.96875 11.21875 -16.71875 18.765625q-10.75 7.546875 -25.109436 10.453125l0 2.40625q15.937561 0.609375 28.968811 8.03125q13.046875 7.421875 20.765625 20.40625q7.734375 12.984375 7.734375 30.484375q0 20.28125 -10.578125 36.109375q-10.5625 15.8125 -30.0 24.875q-19.437561 9.046875 -46.359436 9.046875l-116.390625 0zm67.125 -53.609375l31.390625 0q16.90625 0 25.359375 -6.328125q8.453125 -6.34375 8.453125 -18.78125q0 -8.703125 -3.984375 -14.734375q-3.984375 -6.03125 -11.296875 -9.171875q-7.296875 -3.140625 -17.5625 -3.140625l-32.359375 0l0 52.15625zm0 -93.6875l27.53125 0q8.8125 0 15.578125 -2.78125q6.765625 -2.78125 10.5625 -8.03125q3.8125 -5.25 3.8125 -12.859375q0 -11.46875 -8.21875 -17.5625q-8.203125 -6.09375 -20.765625 -6.09375l-28.5 0l0 47.328125zm227.4732 -99.96875l0 247.26562l-66.640625 0l0 -247.26562l66.640625 0zm154.06396 166.125l0 -104.3125l66.65625 0l0 185.45312l-63.265625 0l0 -35.25l-1.9375 0q-6.03125 17.75 -21.125 27.71875q-15.09375 9.953125 -35.859375 9.953125q-19.4375 0 -34.0 -8.9375q-14.546875 -8.9375 -22.578125 -24.625q-8.015625 -15.703125 -8.140625 -35.984375l0 -118.328125l66.640625 0l0 104.3125q0.125 13.765625 7.0625 21.625q6.953125 7.84375 19.5 7.84375q8.328125 0 14.421875 -3.5625q6.109375 -3.5625 9.421875 -10.140625q3.328125 -6.578125 3.203125 -15.765625zm189.31982 84.515625q-29.703125 0 -51.140625 -11.40625q-21.421875 -11.40625 -32.953125 -32.828125q-11.53125 -21.4375 -11.53125 -51.390625q0 -28.734375 11.59375 -50.21875q11.59375 -21.5 32.71875 -33.453125q21.125 -11.953125 49.859375 -11.953125q21.015625 0 38.03125 6.53125q17.03125 6.515625 29.09375 18.890625q12.078125 12.375 18.59375 30.0q6.53125 17.625 6.53125 39.71875l0 15.46875l-165.65625 0l0 -36.71875l104.328125 0q-0.125 -7.96875 -4.046875 -14.0625q-3.921875 -6.09375 -10.515625 -9.53125q-6.578125 -3.4375 -14.90625 -3.4375q-8.09375 0 -14.859375 3.4375q-6.75 3.4375 -10.796875 9.484375q-4.046875 6.03125 -4.28125 14.109375l0 39.609375q0 8.9375 3.734375 15.9375q3.75 7.0 10.75 10.984375q7.0 3.984375 16.90625 3.984375q6.875 0 12.609375 -1.921875q5.734375 -1.9375 9.84375 -5.609375q4.109375 -3.6875 6.03125 -8.890625l60.859375 0q-3.140625 19.328125 -14.859375 33.515625q-11.703125 14.1875 -30.96875 21.96875q-19.25 7.78125 -44.96875 7.78125z" fill-rule="nonzero"/></g></svg>